<?xml version="1.0" encoding="UTF-8" standalone="no"?>
<svg
   id="Livello_1"
   version="1.1"
   viewBox="0 0 903320 301032.33"
   width="903320"
   height="301032.34"
   xmlns="http://www.w3.org/2000/svg"
   xmlns:svg="http://www.w3.org/2000/svg">
  <!-- Generator: Adobe Illustrator 29.1.0, SVG Export Plug-In . SVG Version: 2.1.0 Build 142)  -->
  <defs
     id="defs1">
    <style
       id="style1">
      .st0 {
        fill: #dbaa5f;
      }
    </style>
  </defs>
  <g
     id="g17"
     transform="translate(-48340,-15592.996)">
    <path
       class="st0"
       d="m 500,475.31 c -60.32,0 -117.02,-23.49 -159.67,-66.14 -42.65,-42.65 -66.14,-99.35 -66.14,-159.67 0,-60.32 23.49,-117.02 66.14,-159.67 42.65,-42.65 99.36,-66.14 159.67,-66.14 60.31,0 117.02,23.49 159.67,66.14 42.65,42.65 66.14,99.35 66.14,159.67 0,60.32 -23.49,117.02 -66.14,159.67 -42.65,42.65 -99.35,66.14 -159.67,66.14 z m 0,-440.74 c -57.41,0 -111.39,22.36 -151.99,62.96 -40.6,40.6 -62.95,94.57 -62.95,151.98 0,57.41 22.36,111.39 62.95,151.99 40.6,40.6 94.57,62.95 151.99,62.95 57.42,0 111.39,-22.36 151.99,-62.95 40.6,-40.6 62.95,-94.57 62.95,-151.99 0,-57.42 -22.36,-111.39 -62.95,-151.98 C 611.39,56.93 557.42,34.57 500,34.57 Z"
       id="path1" />
    <path
       class="st0"
       d="m 478.89,247.06 c 0,0 -17.21,-44.31 -59.23,-22.05 0,0 27.34,17.94 41.01,8.15 0,0 8.03,6.85 8.03,6.85 -0.53,-0.46 -9.1,2.7 -10.31,2.95 -3.74,0.77 -7.56,1.24 -11.38,1.18 -9.39,-0.15 -15.82,-4 -22.55,-10.09 -1.76,-1.59 -11.35,-11.29 -14.37,-11.36 l 6.32,-1.39 c 0,0 15.56,-16.98 41.03,-9.01 0,0 27.66,9.72 24.32,34.77 h -2.86 z"
       id="path2" />
    <path
       class="st0"
       d="m 583.53,224.27 c 0,0 -2.18,-0.44 -2.18,-0.44 -1.29,-0.64 -2.59,-2.73 -3.75,-3.7 -1.55,-1.3 -3.23,-2.45 -5,-3.45 -3.37,-1.89 -7.05,-3.17 -10.85,-3.86 -19.62,-3.57 -37.55,7.8 -41.23,27.42 -1.41,7.51 -1.59,15.64 -0.36,23.21 h 3.27 c -0.51,0 1.66,-13.92 1.95,-15.13 1.21,-5.08 3.01,-10.08 5.71,-14.56 9.66,-16.06 27.62,-16.96 42.66,-8.26 -3.8,0.57 -7.51,6.29 -10.19,7.84 -1.38,0.8 -2.8,1.54 -4.23,2.22 0.87,-3.28 6.1,-6.94 6.1,-6.94 -12.26,-6.67 -27.55,5.08 -33.58,15.44 3.5,-2.75 6.27,-1.05 9.76,0.46 8.38,3.62 20.29,2.05 26.58,-4.82 2.73,-2.99 4.67,-6.63 7.56,-9.48 1.4,-1.38 2.86,-2.04 4.47,-3.05 0.43,-0.27 3.17,-2.96 3.33,-2.92 z"
       id="path3" />
    <path
       class="st0"
       d="m 496.74,314.31 c 0,0 1.26,-0.91 3.26,-2.09 v 45.44 c -40.12,11.71 -43.14,-15.93 -43.14,-15.93 11.33,9.14 18.84,12.84 25.18,10.28 3.33,-1.35 11.4,-6.97 13.39,-10.2 3.31,-5.38 0.73,-13.37 -4.3,-16.49 -3.63,-2.25 -7.79,-3.18 -11.97,-3.71 -4.65,-0.59 -4.74,-7.17 -5.26,-10.84 -0.34,-2.4 -0.42,-4.95 0.28,-7.3 0.38,-1.27 0.98,-2.54 1.92,-3.5 0.17,-0.17 1.26,-0.84 1.3,-1.01 -0.06,0.27 -2.53,10.66 4.64,12.13 0,0 6.02,-3.71 14.7,3.22 z"
       id="path4" />
    <path
       class="st0"
       d="m 500,391.29 v 6.48 c -34.72,-3.84 -45.89,-30.36 -45.89,-30.36 -8.98,63.18 38.06,77.19 38.06,77.19 l 0.22,8.77 c -64.8,-22.02 -39.92,-96.82 -39.92,-96.82 18.35,23.7 34.27,33.13 47.54,34.75 z"
       id="path5" />
    <path
       class="st0"
       d="m 571.09,363.91 c -0.27,0.49 -0.53,0.86 -0.79,1.07 -0.27,0.22 0.05,-0.16 0.79,-1.07 z"
       id="path6" />
    <path
       class="st0"
       d="m 570.3,364.98 c 0.26,-0.21 0.52,-0.57 0.79,-1.07 -0.74,0.91 -1.06,1.28 -0.79,1.07 z M 500,41.44 v 87.05 l 38.49,5.8 c 31.4,-45.53 42.16,-43.73 42.16,-43.73 12.34,0.67 22.87,19.51 22.87,19.51 19.73,41.72 2.7,69.98 2.7,69.98 -5.61,21.98 -6.74,7.62 -6.74,7.62 -5.6,-13.01 -9.64,-17.49 -9.64,-17.49 5.83,-37.68 -1.34,-33.87 -1.34,-33.87 3.14,16.15 -11.29,32.19 -11.29,32.19 24.8,23.19 41.41,67.47 41.41,67.47 9.08,20.74 1.68,20.26 1.68,20.26 -7.39,-15.13 -15.08,-15.8 -15.08,-15.8 22.57,19.83 -0.04,76.57 -0.04,76.57 0.99,-40.13 -16.08,-47.83 -16.6,-48.05 24.49,43.61 -11.27,87.46 -17.49,94.98 2.26,-4.29 4.47,-17.98 4.47,-17.98 6.02,-36.85 -7.77,-38.86 -7.77,-38.86 5.77,12.53 -5.51,15.29 -5.51,15.29 2.01,-4.51 -3.97,-10.82 -3.97,-10.82 1.01,15.9 -2.06,34.37 -18.4,41.23 -6.91,2.9 -16.29,4.99 -23.51,2.24 -4.51,-1.72 -8.72,-5.64 -11.47,-9.57 -2.66,-3.81 -1.68,-13.89 -1.19,-14.82 1.5,-2.78 5.54,-2.52 8.16,-3.33 5.96,-1.87 13.87,-8.99 14.01,-15.75 0.23,-11.65 -3.81,-10.87 -3.81,-10.87 1.8,0 -1.09,8.19 -1.09,8.19 -5.89,-4.45 -15.88,0.33 -21.02,3.36 v 45.44 c 0.18,-0.02 0.35,-0.05 0.52,-0.08 0.6,-0.1 3.07,2.01 3.62,2.31 2.18,1.24 4.43,2.5 6.78,3.42 11.97,4.66 24.98,-0.56 36,-5.59 -0.24,0.54 -16.72,37.25 -46.93,33.57 v 64.44 c 114.4,0 207.14,-92.74 207.14,-207.14 0,-114.4 -92.73,-207.15 -207.14,-207.15 z m 158.46,138.24 c 2.99,0 5.42,2.43 5.42,5.42 0,2.99 -2.43,5.42 -5.42,5.42 -2.99,0 -5.42,-2.43 -5.42,-5.42 0,-2.99 2.43,-5.42 5.42,-5.42 z m -23.1,116.51 c 2.91,0 5.27,2.36 5.27,5.26 0,2.9 -2.36,5.27 -5.27,5.27 -2.91,0 -5.26,-2.36 -5.26,-5.27 0,-2.91 2.36,-5.26 5.26,-5.26 z m 25.92,39.13 c -1.54,2.45 -3.33,4.7 -5.01,7.05 -1.81,2.53 -3.41,5.13 -5.82,7.16 -1.96,1.65 -4.53,2.52 -6.91,3.31 -6.94,2.31 -14.51,3.35 -21.81,3.7 1.05,-2.87 4.95,-4.63 7.48,-5.87 4.36,-2.13 8.98,-3.8 13.62,-5.2 6.72,-2.02 12.39,-5.34 16.86,-10.83 1.38,-1.71 2.63,-3.54 3.68,-5.45 0.2,-0.36 1.26,-1.85 1.14,-2.28 0.79,2.64 -1.94,6.35 -3.23,8.41 z m -20.64,-54.93 c 0,-3.43 2.78,-6.2 6.19,-6.2 3.41,0 6.2,2.78 6.2,6.2 0,3.42 -2.78,6.19 -6.2,6.19 -3.42,0 -6.19,-2.78 -6.19,-6.19 z m 34.89,-9.79 -3.89,10.53 -3.9,-10.53 c -2.74,-7.4 -8.56,-13.23 -15.95,-15.95 l -10.54,-3.9 10.54,-3.9 c 7.39,-2.74 13.22,-8.56 15.95,-15.95 l 3.9,-10.53 3.89,10.53 c 2.74,7.39 8.56,13.22 15.96,15.95 l 10.53,3.9 -10.53,3.9 c -7.4,2.73 -13.23,8.55 -15.96,15.95 z"
       id="path7" />
    <path
       class="st0"
       d="m 571.09,363.91 c -0.27,0.49 -0.53,0.86 -0.79,1.07 -0.27,0.22 0.05,-0.16 0.79,-1.07 z"
       id="path8" />
    <circle
       class="st0"
       cx="500"
       cy="176.78999"
       r="21.870001"
       id="circle8" />
    <path
       class="st0"
       d="m 493.44,122.96 v 9.25 c 0,0.57 -17.26,-5.67 -18.25,-6.19 -11.26,-5.87 -21.56,-15.59 -26.14,-27.8 -5.01,-13.34 -1.09,-26.56 6.7,-37.93 6.06,-8.84 17.31,-17.54 28.44,-18.25 l 9.25,-0.59 v 5.14 c 0,0.3 -18.25,8.33 -19.64,9.22 -8.88,5.73 -16.43,14.36 -16.13,25.63 0.27,10.29 3.59,21.02 10.96,28.4 3.27,3.27 7.15,5.9 11.26,8.01 1.19,0.61 13.56,5.06 13.56,5.13 z"
       id="path9" />
    <path
       class="st0"
       d="m 427.35,54.54 c -7.13,2.32 -14.07,11.73 -17.29,17.9 -9.44,18.08 -2.91,43.75 12.86,56.12 6.11,4.8 13.14,8.39 20.3,11.33 3.35,1.38 34.91,10.14 34.91,9.92 v -9.25 c 0,0 -67.74,-8.69 -61.37,-53.72 0,0 3.38,-24.87 27.95,-37.94 0,0 -17.33,5.63 -17.35,5.64 z"
       id="path10" />
    <path
       class="st0"
       d="m 379.91,79.78 c -0.85,0.66 -1.28,3.72 -1.55,4.68 -1.15,3.98 -1.98,8.06 -2.45,12.17 -1.31,11.38 0.17,23.39 6.69,33.07 7.32,10.86 19.74,16.97 32.04,20.38 6.23,1.73 12.58,2.73 19,3.46 7.06,0.8 14.8,0.37 21.42,3.26 3.37,1.47 11.24,5.86 8.24,10.61 -2.76,4.36 -7.3,0.65 -10.32,-1.18 -6.66,-4.06 -15.92,-3.17 -23.47,-4.2 -7.55,-1.03 -15.24,-2.49 -22.62,-4.73 -14.1,-4.28 -28.05,-11.81 -35.49,-25.06 0,0 -12.78,-28.49 -4.6,-42.31 0,0 13.09,-10.14 13.1,-10.15 z"
       id="path11" />
    <path
       class="st0"
       d="m 451.07,179.65 -9.17,-7.46 c 0,0 -118.42,-10.64 -146.16,41.83 l -2.33,19.51 c 0,0 23.82,-65.46 157.67,-53.88 z"
       id="path12" />
    <path
       class="st0"
       d="m 300.76,305.45 c 0,0 7.96,-50.57 56.06,-71.92 0,0 67.11,-26.39 75.64,-42.3 0,0 -53.5,22.87 -53.53,22.89 -26.44,11.3 -53.06,23.18 -69.92,48.16 -4.13,6.12 -13.97,18.5 -12.31,26.24 1.55,7.26 4.05,16.93 4.05,16.93 z"
       id="path13" />
    <path
       class="st0"
       d="m 410.1,243.31 c 0,0 -100.47,37.04 -85.59,115.36 l 7.19,10.69 c 0,0 -12.09,-74.63 73.98,-115.48 z"
       id="path14" />
    <path
       class="st0"
       d="m 417.74,273.11 c 0,0 -89.5,56.34 -61.57,124.53 0,0 8.33,7.62 8.33,7.62 -5.88,-5.38 -5.05,-22.84 -4.61,-29.54 1.43,-21.66 10.71,-43.76 25,-60.09 5.55,-6.35 12.55,-11.77 18.8,-17.47 2.76,-2.52 10.27,-7.06 11.65,-10.62 0,0 6.66,-17.3 2.4,-14.42 z"
       id="path15" />
    <path
       class="st0"
       d="m 434.08,298.96 c 0,0 -73.87,57.24 -41.98,126.47 0,0 16.99,9.32 17,9.32 -2.19,-1.2 -4.25,-6.28 -5.4,-8.32 -4.1,-7.3 -7.21,-15.2 -9,-23.39 -4.84,-22.22 2.86,-43.29 15.87,-61.2 2.71,-3.73 29.95,-40.56 23.51,-42.89 z"
       id="path16" />
    <path
       class="st0"
       d="m 441.94,324.62 c 0,0 -53.48,67.15 -3.76,121.72 l 16.95,4.51 c 0,0 -43.16,-33.08 -28.27,-75.37 0,0 19.4,-44.54 15.07,-50.86 z"
       id="path17" />
  </g>
  <path
     class="st0"
     d="m -47487.36,-15111.956 h -17.28 c -2.62,0 -4.67,-2.25 -4.43,-4.86 5.04,-55.11 7.24,-210.93 7.24,-210.93 0.03,-1 0.85,-1.79 1.85,-1.79 h 1.54 c 0.93,0 1.7,0.71 1.79,1.63 0,0 3.14,153.44 18.28,203.84 1.81,6.04 -2.7,12.11 -9,12.11 z"
     id="path18" />
  <path
     class="st0"
     d="m -47506.17,-15349.826 c 0,-0.35 -6.32,1.48 -6.73,1.68 -3.14,1.55 -4.95,4.95 -4.14,8.44 0.79,3.41 3.82,5.91 7.38,5.15 3.13,-0.67 5.09,-3.69 6.32,-6.4 -0.21,0.46 5.15,4.14 5.77,4.52 2.19,1.35 4.76,2.39 7.37,1.8 5.09,-1.15 8.68,-7.32 6.71,-12.22 -1.94,-4.83 -6.61,-8.42 -11.82,-9.15 -4.11,-0.57 -10.86,0.83 -10.86,6.17 z"
     id="path19" />
  <path
     class="st0"
     d="m -47503.63,-15367.826 h -11.14 c -5.17,0 -12.38,-1.21 -17.17,0.89 -13.89,6.09 -28,15.24 -35.81,28.64 -8.35,14.32 -5.77,30.53 2.45,44.31 0,0 3.26,-27.51 10.18,-41.29 0,0 2.61,14.85 8.81,15.82 0,0 3.1,-32.27 3.1,-32.3 0.08,-0.83 1.73,0.21 1.88,0.39 0.82,0.99 1.08,2.51 1.31,3.73 0.41,2.23 0.39,13.99 5.13,12.35 0,0 0.82,-19.34 7.02,-20.85 0,0 -2.61,9.1 -3.75,9.75 -1.29,0.74 -0.1,1.29 0.92,0.83 1.82,-0.81 3.45,-3.39 4.63,-4.86 5.35,-6.63 12.75,-14.93 22.43,-12.78 v -4.65 z"
     id="path20" />
  <path
     class="st0"
     d="m -47505.28,-15371.106 c 0,0 -14.29,-11.12 -21.57,-5.03 0,0 -0.13,-11.16 -6.49,-9.22 0,0 -1.06,12.53 -14.16,15.44 0,0 4.76,-11.91 2.65,-13.9 l -4.63,-0.53 c 0,0 -9,17.07 -16.41,17.74 l 0.79,-10.85 c 0,0 -4.5,1.32 -4.76,3.71 0,0 -2.25,11.51 -15.75,14.69 0,0 -9.79,8.6 -9.53,9.53 0.26,0.93 -2.25,-29.58 33.88,-45 0,0 32.65,-7.26 52.22,13.81 2.43,2.61 3.76,6.05 3.76,9.62 v 0 z"
     id="path21" />
  <path
     class="st0"
     d="m -47501.24,-15381.236 c 0,0 -16.32,-26.88 -44,-27.07 -1.01,0 0.44,-1.09 0.49,-1.12 1.41,-1.11 4.06,-1.11 5.75,-1.32 1.85,-0.24 3.72,-0.41 5.58,-0.51 1.16,-0.06 3.08,0.33 3.76,-0.87 1.31,-2.32 -1.68,-4.36 -3.54,-4.74 -2.32,-0.48 -4.71,-0.06 -7.05,-0.18 -3.88,-0.2 -7.77,-0.4 -11.65,-0.6 -5.21,-0.27 -10.42,-0.53 -15.63,-0.81 -0.18,0 1.91,-3.61 2.09,-3.82 1.15,-1.29 2.62,-2.22 4.23,-2.83 1.65,-0.62 5.5,0.11 6.02,-2.21 1.17,-5.23 -7.99,-1.95 -9.8,-1.64 -4.36,0.75 -8.97,1.54 -13.4,1.09 -2.46,-0.24 -4.73,-1.24 -7.06,-1.98 -2.61,-0.83 -5.04,-0.89 -7.74,-1.07 -0.57,-0.04 -3.78,-0.69 -4.2,-0.29 14.77,-14.07 41.69,-15.62 57.82,-2.76 1.85,1.47 3.52,3.16 4.97,5.02 0.75,0.97 1.17,1.67 2.4,2.1 2.49,0.88 0.97,-2.01 0.38,-3 -1.37,-2.28 -3.17,-4.41 -5.56,-5.65 0,0 1.83,-0.63 2.21,-0.58 0.98,0.11 1.9,0.75 2.66,1.32 1.81,1.35 3.17,3.21 4.56,4.97 6.67,8.43 12.76,17.32 18.08,26.66 3.61,6.32 8.64,14.34 8.63,21.9 z"
     id="path22" />
  <path
     class="st0"
     d="m -47500.09,-15395.746 c -2.37,-6.64 -4.75,-13.27 -7.12,-19.91 -1.96,-5.48 -3.97,-10.97 -5.35,-16.63 -1.43,-5.86 -1.58,-11.78 -2.36,-17.71 -0.22,-1.72 -1.08,-4.3 -0.7,-5.91 4.39,1.11 7.54,8.2 8.18,12.23 0,0 -3.81,-23.95 -0.62,-25.55 l 1.59,1.75 c 0,0 6.85,-25.79 21.13,-33.52 0,0 1.17,3.64 0.87,5.68 0,0 2.77,-1.75 2.77,-1.75 -0.09,4.26 -0.61,8.85 -2.6,12.68 -1.25,2.42 -3.35,4.19 -5.04,6.27 -1.84,2.26 -3.16,4.98 -4.61,7.51 -0.77,1.35 -1.57,2.74 -2.11,4.21 -0.12,0.33 -0.29,2.34 -0.35,2.4 0,0 7.72,-8.6 7.72,-8.6 -0.18,0.2 -0.1,1.33 -0.13,1.6 -0.18,1.52 -0.51,3.04 -0.99,4.5 -1.05,3.21 -2.82,6.18 -5.57,8.21 -2.32,1.71 -7.42,8.6 -4.53,11.49 0,0 6.96,-7.97 6.99,-8.01 0.12,-0.14 0.6,2.41 0.58,2.6 -0.24,2.79 -2.16,5.4 -3.3,7.91 -4.96,10.96 -2.9,24.84 -3.67,36.57 -0.26,3.99 -0.52,7.99 -0.79,11.98 z"
     id="path23" />
  <path
     class="st0"
     d="m -47493.49,-15384.556 -2.38,-0.8 c 1.35,-15.29 3.62,-30.96 8.19,-45.64 7.38,-23.68 33.57,-41.85 58.6,-37.9 1.63,0.26 3.24,0.6 4.83,1.01 0,0 -21.63,10.12 -21.82,18.05 0,0 -18.45,-1.19 -29.76,16.27 0,0 17.66,-7.74 18.85,-8.33 1.19,-0.59 4.76,8.53 -22.42,19.84 0,0 -8.73,4.84 -6.94,10.06 0,0 6.75,-8.28 16.86,-6.09 0,0 -20.83,15.28 -24.01,33.53 z"
     id="path24" />
  <path
     class="st0"
     d="m -47490.72,-15373.646 c 0,0 3.77,-29.76 46.03,-42.26 0,0 40.28,-5.95 56.35,24.8 -4.76,-1.06 -9.58,-1.98 -14.41,-2.6 -2.43,-0.31 -4.98,0 -7.37,-0.48 -2.58,-0.53 -4.6,-2.3 -6.74,-3.7 -2.31,-1.52 -4.89,-2.6 -7.42,-3.7 -2.56,-1.11 -7.19,-3.28 -9.88,-1.42 0,0 3.75,8.62 12.9,13.49 4.13,2.2 -3.66,2.69 -4.64,2.64 -3.58,-0.18 -7.22,-2.93 -9.91,-5.12 -4.08,-3.32 -10.99,-8.52 -16.59,-6.25 -1.48,0.6 0.05,3.72 0.73,4.41 0.59,0.6 6.89,5.55 9.19,7.3 0,0 -6.94,3.17 -21.43,-6.55 0.2,0.13 -0.23,3.75 -0.48,4.16 -0.67,1.07 -1.69,1.14 -2.83,1.47 -2.52,0.73 -5.01,1.6 -7.44,2.6 -5.97,2.47 -12.19,5.85 -16.04,11.21 z"
     id="path25" />
  <path
     class="st0"
     d="m -47489.09,-15368.176 c 0,0 23.2,-3.22 43.5,13.99 0,0 -0.97,-10.05 0,-10.44 1.64,-0.66 4.3,3.11 4.82,4.07 1.39,2.59 1.71,5.67 1.72,8.56 0,3.14 -1.06,11.69 4.48,11.34 v -15.47 c 0,-1.14 4.13,1.51 4.34,1.8 2.8,3.76 1.9,9.13 1.92,13.49 0,1.51 1.04,12.58 4.05,9.75 0,0 3.61,-3.39 3.61,-11.31 0,0 2.71,0 2.71,1.35 0,2.14 1.61,5.1 2.29,7.17 2.86,8.57 4.77,21.73 12.98,27.05 -0.29,-0.21 1.31,-7.19 1.4,-8.02 0.31,-2.76 0.41,-5.55 0.2,-8.32 -0.84,-11.11 -6.7,-21.36 -13.45,-29.95 -6.79,-8.65 -14.86,-16.27 -25.28,-20.27 -16.34,-6.26 -34.09,-2.31 -49.3,5.2 z"
     id="path26" />
  <path
     class="st0"
     d="m -47490.72,-15365.396 c 0,0 24.25,10.83 15.16,39.05 0,0 5.22,0.77 8.89,-14.31 0,0 2.71,0 2.71,3.67 l -0.97,26.1 c 0,0 6.19,-0.39 9.09,-11.41 l 3.29,-0.19 c 0,0 1.74,18.75 -5.99,21.65 0,0 5.17,-1.55 6.16,-4.06 0,0 1.76,30.15 1.77,30.16 -0.03,-0.56 2.03,-2.61 2.35,-3.09 1.94,-2.85 3.55,-5.93 4.85,-9.12 4.3,-10.53 4.81,-21.86 2.62,-32.95 -2.28,-11.53 -9.75,-20.97 -17.99,-29.02 -8.41,-8.22 -18.91,-14.95 -30.8,-16.38 -0.38,-0.05 -0.76,-0.08 -1.13,-0.12 z"
     id="path27" />
  <path
     class="st0"
     d="m -48192.64,-15111.956 h 17.28 c 2.62,0 4.67,-2.25 4.43,-4.86 -5.04,-55.11 -7.24,-210.93 -7.24,-210.93 -0.03,-1 -0.85,-1.79 -1.85,-1.79 h -1.54 c -0.93,0 -1.7,0.71 -1.79,1.63 0,0 -3.14,153.44 -18.28,203.84 -1.81,6.04 2.7,12.11 9,12.11 z"
     id="path28" />
  <path
     class="st0"
     d="m -48173.83,-15349.826 c 0,-0.35 6.32,1.48 6.73,1.68 3.14,1.55 4.95,4.95 4.14,8.44 -0.79,3.41 -3.82,5.91 -7.38,5.15 -3.13,-0.67 -5.09,-3.69 -6.32,-6.4 0.21,0.46 -5.15,4.14 -5.77,4.52 -2.19,1.35 -4.76,2.39 -7.37,1.8 -5.09,-1.15 -8.68,-7.32 -6.71,-12.22 1.94,-4.83 6.61,-8.42 11.82,-9.15 4.11,-0.57 10.86,0.83 10.86,6.17 z"
     id="path29" />
  <path
     class="st0"
     d="m -48176.37,-15367.826 h 11.14 c 5.17,0 12.38,-1.21 17.17,0.89 13.89,6.09 28,15.24 35.81,28.64 8.35,14.32 5.77,30.53 -2.45,44.31 0,0 -3.26,-27.51 -10.18,-41.29 0,0 -2.61,14.85 -8.81,15.82 0,0 -3.1,-32.27 -3.1,-32.3 -0.08,-0.83 -1.73,0.21 -1.88,0.39 -0.82,0.99 -1.08,2.51 -1.31,3.73 -0.41,2.23 -0.39,13.99 -5.13,12.35 0,0 -0.82,-19.34 -7.02,-20.85 0,0 2.61,9.1 3.75,9.75 1.29,0.74 0.1,1.29 -0.92,0.83 -1.82,-0.81 -3.45,-3.39 -4.63,-4.86 -5.35,-6.63 -12.75,-14.93 -22.43,-12.78 v -4.65 z"
     id="path30" />
  <path
     class="st0"
     d="m -48174.72,-15371.106 c 0,0 14.29,-11.12 21.57,-5.03 0,0 0.13,-11.16 6.49,-9.22 0,0 1.06,12.53 14.16,15.44 0,0 -4.76,-11.91 -2.65,-13.9 l 4.63,-0.53 c 0,0 9,17.07 16.41,17.74 l -0.79,-10.85 c 0,0 4.5,1.32 4.76,3.71 0,0 2.25,11.51 15.75,14.69 0,0 9.79,8.6 9.53,9.53 -0.26,0.93 2.25,-29.58 -33.88,-45 0,0 -32.65,-7.26 -52.22,13.81 -2.43,2.61 -3.76,6.05 -3.76,9.62 v 0 z"
     id="path31" />
  <path
     class="st0"
     d="m -48178.76,-15381.236 c 0,0 16.32,-26.88 44,-27.07 1.01,0 -0.44,-1.09 -0.49,-1.12 -1.41,-1.11 -4.06,-1.11 -5.75,-1.32 -1.85,-0.24 -3.72,-0.41 -5.58,-0.51 -1.16,-0.06 -3.08,0.33 -3.76,-0.87 -1.31,-2.32 1.68,-4.36 3.54,-4.74 2.32,-0.48 4.71,-0.06 7.05,-0.18 3.88,-0.2 7.77,-0.4 11.65,-0.6 5.21,-0.27 10.42,-0.53 15.63,-0.81 0.18,0 -1.91,-3.61 -2.09,-3.82 -1.15,-1.29 -2.62,-2.22 -4.23,-2.83 -1.65,-0.62 -5.5,0.11 -6.02,-2.21 -1.17,-5.23 7.99,-1.95 9.8,-1.64 4.36,0.75 8.97,1.54 13.4,1.09 2.46,-0.24 4.73,-1.24 7.06,-1.98 2.61,-0.83 5.04,-0.89 7.74,-1.07 0.57,-0.04 3.78,-0.69 4.2,-0.29 -14.77,-14.07 -41.69,-15.62 -57.82,-2.76 -1.85,1.47 -3.52,3.16 -4.97,5.02 -0.75,0.97 -1.17,1.67 -2.4,2.1 -2.49,0.88 -0.97,-2.01 -0.38,-3 1.37,-2.28 3.17,-4.41 5.56,-5.65 0,0 -1.83,-0.63 -2.21,-0.58 -0.98,0.11 -1.9,0.75 -2.66,1.32 -1.81,1.35 -3.17,3.21 -4.56,4.97 -6.67,8.43 -12.76,17.32 -18.08,26.66 -3.61,6.32 -8.64,14.34 -8.63,21.9 z"
     id="path32" />
  <path
     class="st0"
     d="m -48179.91,-15395.746 c 2.37,-6.64 4.75,-13.27 7.12,-19.91 1.96,-5.48 3.97,-10.97 5.35,-16.63 1.43,-5.86 1.58,-11.78 2.36,-17.71 0.22,-1.72 1.08,-4.3 0.7,-5.91 -4.39,1.11 -7.54,8.2 -8.18,12.23 0,0 3.81,-23.95 0.62,-25.55 l -1.59,1.75 c 0,0 -6.85,-25.79 -21.13,-33.52 0,0 -1.17,3.64 -0.87,5.68 0,0 -2.77,-1.75 -2.77,-1.75 0.09,4.26 0.61,8.85 2.6,12.68 1.25,2.42 3.35,4.19 5.04,6.27 1.84,2.26 3.16,4.98 4.61,7.51 0.77,1.35 1.57,2.74 2.11,4.21 0.12,0.33 0.29,2.34 0.35,2.4 0,0 -7.72,-8.6 -7.72,-8.6 0.18,0.2 0.1,1.33 0.13,1.6 0.18,1.52 0.51,3.04 0.99,4.5 1.05,3.21 2.82,6.18 5.57,8.21 2.32,1.71 7.42,8.6 4.53,11.49 0,0 -6.96,-7.97 -6.99,-8.01 -0.12,-0.14 -0.6,2.41 -0.58,2.6 0.24,2.79 2.16,5.4 3.3,7.91 4.96,10.96 2.9,24.84 3.67,36.57 0.26,3.99 0.52,7.99 0.79,11.98 z"
     id="path33" />
  <path
     class="st0"
     d="m -48186.51,-15384.556 2.38,-0.8 c -1.35,-15.29 -3.62,-30.96 -8.19,-45.64 -7.38,-23.68 -33.57,-41.85 -58.6,-37.9 -1.63,0.26 -3.24,0.6 -4.83,1.01 0,0 21.63,10.12 21.82,18.05 0,0 18.45,-1.19 29.76,16.27 0,0 -17.66,-7.74 -18.85,-8.33 -1.19,-0.59 -4.76,8.53 22.42,19.84 0,0 8.73,4.84 6.94,10.06 0,0 -6.75,-8.28 -16.86,-6.09 0,0 20.83,15.28 24.01,33.53 z"
     id="path34" />
  <path
     class="st0"
     d="m -48189.28,-15373.646 c 0,0 -3.77,-29.76 -46.03,-42.26 0,0 -40.28,-5.95 -56.35,24.8 4.76,-1.06 9.58,-1.98 14.41,-2.6 2.43,-0.31 4.98,0 7.37,-0.48 2.58,-0.53 4.6,-2.3 6.74,-3.7 2.31,-1.52 4.89,-2.6 7.42,-3.7 2.56,-1.11 7.19,-3.28 9.88,-1.42 0,0 -3.75,8.62 -12.9,13.49 -4.13,2.2 3.66,2.69 4.64,2.64 3.58,-0.18 7.22,-2.93 9.91,-5.12 4.08,-3.32 10.99,-8.52 16.59,-6.25 1.48,0.6 -0.05,3.72 -0.73,4.41 -0.59,0.6 -6.89,5.55 -9.19,7.3 0,0 6.94,3.17 21.43,-6.55 -0.2,0.13 0.23,3.75 0.48,4.16 0.67,1.07 1.69,1.14 2.83,1.47 2.52,0.73 5.01,1.6 7.44,2.6 5.97,2.47 12.19,5.85 16.04,11.21 z"
     id="path35" />
  <path
     class="st0"
     d="m -48190.91,-15368.176 c 0,0 -23.2,-3.22 -43.5,13.99 0,0 0.97,-10.05 0,-10.44 -1.64,-0.66 -4.3,3.11 -4.82,4.07 -1.39,2.59 -1.71,5.67 -1.72,8.56 0,3.14 1.06,11.69 -4.48,11.34 0,0 0,-15.42 0,-15.47 0,-1.14 -4.13,1.51 -4.34,1.8 -2.8,3.76 -1.9,9.13 -1.92,13.49 0,1.51 -1.04,12.58 -4.05,9.75 0,0 -3.61,-3.39 -3.61,-11.31 0,0 -2.71,0 -2.71,1.35 0,2.14 -1.61,5.1 -2.29,7.17 -2.86,8.57 -4.77,21.73 -12.98,27.05 0.29,-0.21 -1.31,-7.19 -1.4,-8.02 -0.31,-2.76 -0.41,-5.55 -0.2,-8.32 0.84,-11.11 6.7,-21.36 13.45,-29.95 6.75,-8.59 14.86,-16.27 25.28,-20.27 16.34,-6.26 34.09,-2.31 49.3,5.2 z"
     id="path36" />
  <path
     class="st0"
     d="m -48189.28,-15365.396 c 0,0 -24.25,10.83 -15.16,39.05 0,0 -5.22,0.77 -8.89,-14.31 0,0 -2.71,0 -2.71,3.67 l 0.97,26.1 c 0,0 -6.19,-0.39 -9.09,-11.41 l -3.29,-0.19 c 0,0 -1.74,18.75 5.99,21.65 0,0 -5.17,-1.55 -6.16,-4.06 0,0 -1.76,30.15 -1.77,30.16 0.03,-0.56 -2.03,-2.61 -2.35,-3.09 -1.94,-2.85 -3.55,-5.93 -4.85,-9.12 -4.3,-10.53 -4.81,-21.86 -2.62,-32.95 2.28,-11.53 9.75,-20.97 17.99,-29.02 8.41,-8.22 18.91,-14.95 30.8,-16.38 0.38,-0.05 0.76,-0.08 1.13,-0.12 z"
     id="path37" />
  <path
     class="st0"
     d="m -47585.77,-15480.776 8.02,2.97 -8.02,2.97 c -1.98,0.73 -3.54,2.3 -4.28,4.28 l -2.97,8.02 -2.97,-8.02 c -0.73,-1.98 -2.3,-3.54 -4.28,-4.28 l -8.02,-2.97 8.02,-2.97 c 1.98,-0.73 3.54,-2.3 4.28,-4.28 l 2.97,-8.02 2.97,8.02 c 0.73,1.98 2.3,3.54 4.28,4.28 z"
     id="path38" />
  <path
     class="st0"
     d="m -47558.85,-15524.286 11.83,4.38 -11.83,4.38 c -0.63,0.23 -1.12,0.73 -1.36,1.36 l -4.38,11.83 -4.38,-11.83 c -0.23,-0.63 -0.73,-1.12 -1.36,-1.36 l -11.83,-4.38 11.83,-4.38 c 0.63,-0.23 1.12,-0.73 1.36,-1.36 l 4.38,-11.83 4.38,11.83 c 0.23,0.63 0.73,1.12 1.36,1.36 z"
     id="path39" />
  <path
     class="st0"
     d="m -48094.43,-15490.316 11.83,4.38 -11.83,4.38 c -0.63,0.23 -1.12,0.73 -1.36,1.36 l -4.38,11.83 -4.38,-11.83 c -0.23,-0.63 -0.73,-1.12 -1.36,-1.36 l -11.83,-4.38 11.83,-4.38 c 0.63,-0.23 1.12,-0.73 1.36,-1.36 l 4.38,-11.83 4.38,11.83 c 0.23,0.63 0.73,1.12 1.36,1.36 z"
     id="path40" />
  <g
     id="g46"
     transform="translate(-48340,-15592.996)" />
</svg>
