<?xml version="1.0" encoding="UTF-8"?>
<svg id="Livello_1" xmlns="http://www.w3.org/2000/svg" version="1.1" viewBox="0 0 1000 282.41">
  <!-- Generator: Adobe Illustrator 29.1.0, SVG Export Plug-In . SVG Version: 2.1.0 Build 142)  -->
  <defs>
    <style>
      .st0 {
        fill: #dbaa5f;
      }
    </style>
  </defs>
  <g>
    <path class="st0" d="M179.11,150.35c.68,4.45,2.25,8.1,4.7,10.95,2.45,2.85,5.73,5.08,9.84,6.67v2.74c-4.68-.8-8.75-1.37-12.23-1.71-3.48-.34-6.76-.51-9.84-.51-3.42,0-6.9.14-10.43.43-3.54.29-7.81.83-12.83,1.63v-2.4c0-1.03.97-2.22,2.91-3.59,1.37-1.03,2.42-1.97,3.16-2.82.74-.85,1.11-2.08,1.11-3.68,0-.11-.06-.28-.17-.51v-.68l-10.26-75.78-36.1,87.24c-.34.46-.94.97-1.8,1.54-.85.57-1.86.85-2.99.85-1.48,0-2.57-.23-3.25-.68-.68-.45-1.31-1.14-1.88-2.05-.46-.91-.97-1.91-1.54-2.99-.57-1.08-1.28-2.45-2.14-4.11-.86-1.65-2.4-4.82-4.62-9.49-2.22-4.67-5.67-11.92-10.35-21.73-13.12-27.37-20.99-43.73-23.61-49.1l-9.07,69.62c-.11.57-.17,1.71-.17,3.42,0,3.54.71,6.42,2.14,8.64,1.42,2.22,3.73,4.02,6.93,5.39l1.2,2.91c-3.99-.57-8.07-1-12.23-1.28-4.16-.28-7.73-.43-10.69-.43-2.62,0-5.36.11-8.21.34-2.85.23-6.56.68-11.12,1.37l2.22-2.74c3.76-1.25,6.81-3.82,9.15-7.7,2.34-3.88,3.85-8.55,4.53-14.03l13.51-99.56c0-6.73-3.48-12.54-10.43-17.45v-2.05c4.33.46,8.04.74,11.12.86,3.08.11,6.95.17,11.63.17l48.75,106.4,36.44-86.05,8.55-20.36c2.51,0,4.65-.03,6.42-.09,1.77-.06,4.7-.2,8.81-.43,3.42-.23,5.93-.4,7.53-.51v2.05c-2.97,1.6-5.33,4.02-7.1,7.27-1.77,3.25-2.65,6.53-2.65,9.84v1.37c.11.57.17.97.17,1.2l14.88,101.61Z"/>
    <path class="st0" d="M340.94,150.52c1.71,4.45,3.79,8.04,6.24,10.78,2.45,2.74,5.5,4.91,9.15,6.5v2.74c-4.68-.8-8.75-1.37-12.23-1.71-3.48-.34-6.7-.51-9.67-.51-3.54,0-7.07.14-10.61.43-3.54.29-7.81.83-12.83,1.62v-2.4c0-.8.74-2.16,2.22-4.11,2.17-2.85,3.25-5.13,3.25-6.84,0-1.14-.14-2.37-.43-3.68-.29-1.31-.54-2.19-.77-2.65l-13.17-35.92c-7.18-.57-13.57-.85-19.16-.85-7.87,0-14.6.29-20.19.85l-15.05,39v.17c-.8,1.83-1.31,3.22-1.54,4.19-.23.97-.34,2.08-.34,3.34,0,2.62,1.03,4.91,3.08,6.84v2.05c-3.88-.57-7.13-.97-9.75-1.2-2.62-.23-5.08-.34-7.36-.34-2.62,0-5.36.11-8.21.34-2.85.23-6.56.68-11.12,1.37l2.22-2.74c4.22-1.48,7.84-3.65,10.86-6.5,3.02-2.85,5.56-6.73,7.61-11.63l40.71-98.88c.23-.45.34-1.25.34-2.4,0-3.42-1.17-6.81-3.51-10.18-2.34-3.36-5.45-6.42-9.32-9.15l-.68-2.05c8.78.8,16.76,1.2,23.95,1.2h7.36l8.21,20.36,40.71,101.96ZM298.34,105.53v-.51l-15.05-39.69-16.08,39.69v.51c6.84.23,11.98.34,15.4.34s8.67-.11,15.74-.34Z"/>
    <path class="st0" d="M486.86,27.7c2.39.34,3.99.51,4.79.51,2.16,0,5.82-.17,10.95-.51,4.45-.34,7.87-.57,10.26-.68v2.05c-3.08,1.6-5.3,4.19-6.67,7.78-1.37,3.59-2.22,7.61-2.57,12.06-.34,4.34-.54,8.84-.6,13.51-.06,4.68-.09,10.61-.09,17.79v20.36c0,4.22-.06,10.32-.17,18.3-.11,10.84-.17,18.36-.17,22.58,0,9.13.11,15.57.34,19.33l.17,1.88c.11,2.28.17,3.82.17,4.62,0,2.05-.34,3.51-1.03,4.36-.68.86-2,1.28-3.93,1.28-1.14,0-2.42-.54-3.85-1.62-1.43-1.09-2.65-2.31-3.68-3.68l-88.61-102.3v35.24c0,15.85.45,32.73,1.37,50.64.34,7.98,3.7,13.4,10.09,16.25v2.4c-5.25-.45-9.55-.77-12.92-.94-3.36-.17-6.53-.26-9.49-.26-1.83,0-3.54.06-5.13.17-1.6.11-4.9.4-9.92.85v-2.39c2.96-1.48,5.3-3.48,7.01-5.99,1.71-2.51,2.62-5.59,2.74-9.24.23-11.29.34-28.34.34-51.15,0-3.65.06-9.41.17-17.28.11-8.1.17-14.2.17-18.3,0-7.87-.11-13.69-.34-17.45v-1.2c-.34-3.76-1.26-7.13-2.74-10.09-1.48-2.96-3.99-5.7-7.53-8.21l-.85-2.4c.57,0,1.37.06,2.4.17,5.13.57,9.09.94,11.89,1.11,2.79.17,5.67.32,8.64.43l88.95,105.04v-31.99c0-8.67-.11-17.51-.34-26.52-.23-9.01-.57-17.73-1.03-26.17v-.17c-.23-4.56-.86-8.32-1.88-11.29-1.03-2.96-3.36-5.65-7.01-8.04v-2.22c3.08.23,6.44.68,10.09,1.37Z"/>
    <path class="st0" d="M655.87,36.42c-2.74,5.59-4.39,9.64-4.96,12.15-.11.68-.83,1.28-2.14,1.8-1.31.51-2.37.77-3.16.77-1.6,0-2.68-.51-3.25-1.54-.57-1.03-.97-2.51-1.2-4.45-.12-1.03-.23-1.65-.34-1.88-.34-1.6-1-2.76-1.97-3.51-.97-.74-2.03-1.17-3.16-1.28-2.74-.11-7.07-.17-13-.17h-13.51l-.85,11.12c-.57,7.41-.86,16.76-.86,28.05,0,3.76.06,7.93.17,12.49v11.12c0,15.74.45,32.62,1.37,50.64.34,7.76,3.7,13.17,10.09,16.25v2.4c-5.36-.46-9.67-.77-12.92-.94-3.25-.17-6.42-.26-9.49-.26-2.85,0-5.85.09-8.98.26-3.14.17-7.1.48-11.89.94v-2.4c3.08-1.6,5.47-3.62,7.18-6.07,1.71-2.45,2.62-5.5,2.74-9.15.23-11.4.34-28.45.34-51.15v-30.11c0-8.1-.11-16.31-.34-24.63l-.17-8.55c-5.93,0-11.23.17-15.91.51-4.68.34-9.3,1.03-13.86,2.05-1.37.34-2.99.97-4.87,1.88-1.88.91-3.85,2.22-5.9,3.93-.23.11-.63.46-1.2,1.03-1.26,1.14-2.45,2.05-3.59,2.74-1.14.68-2.45,1.03-3.93,1.03-1.03,0-2.05-.26-3.08-.77s-1.54-.88-1.54-1.11c.11-.91,1.14-2.74,3.08-5.47,2.05-2.85,3.42-5.02,4.11-6.5.11-.34.51-1.2,1.2-2.57,1.94-3.65,3.19-6.67,3.76-9.07h7.18c1.14,1.26,2.16,2.05,3.08,2.4.91.34,2.51.57,4.79.68,9.35.11,23.32.17,41.91.17,6.16,0,15.8-.23,28.91-.68,4.67-.11,9.41-.23,14.2-.34,1.82-.11,4.28-.74,7.36-1.88,1.48-.57,2.62-.97,3.42-1.2h5.82c-.34,2.17-1.88,5.93-4.62,11.29Z"/>
    <path class="st0" d="M717.97,28.89c6.84-.45,11.97-.68,15.4-.68,4.22,0,9.07.6,14.54,1.8,5.47,1.2,9.81,2.82,13,4.88,6.16,3.65,10.72,8.38,13.69,14.2,2.96,5.82,4.45,11.75,4.45,17.79,0,6.5-1.57,12.69-4.7,18.56-3.14,5.88-7.56,10.75-13.26,14.63-2.28,1.48-4.45,2.57-6.5,3.25,1.6,2.51,4.16,6.62,7.7,12.32,4.79,7.76,8.95,14.34,12.49,19.76,3.53,5.42,7.33,10.55,11.38,15.4,4.05,4.85,8.18,8.72,12.4,11.63,4.22,2.91,8.32,4.36,12.32,4.36.69,0,1.65-.06,2.91-.17,2.05-.23,3.65-.34,4.79-.34,1.03,0,1.97.2,2.82.6.86.4,1.45.77,1.8,1.11,0,.91-.69,1.8-2.05,2.65-1.37.86-3.14,1.65-5.31,2.4-2.17.74-4.33,1.31-6.5,1.71-2.17.4-3.93.6-5.31.6-6.73,0-12.86-1.23-18.39-3.68-5.53-2.45-10.49-5.73-14.88-9.84-4.39-4.11-8.3-8.49-11.72-13.17-3.42-4.67-7.47-10.61-12.14-17.79-3.76-5.7-6.93-10.41-9.5-14.11-2.56-3.7-5.27-7.1-8.12-10.18h-6.84c-1.48,0-3.82.17-7.01.51l-2.05.17c0,15.85.4,30.74,1.2,44.65.34,4.79,1.22,8.27,2.65,10.44,1.42,2.17,3.96,4.05,7.61,5.64v2.4c-5.36-.46-9.69-.77-13-.94-3.31-.17-6.5-.26-9.58-.26-6.84,0-14.49.4-22.92,1.2v-2.4c3.53-1.82,6.39-3.93,8.55-6.33,2.17-2.4,3.31-5.3,3.42-8.72.23-11.4.34-28.51.34-51.32,0-8.67-.12-17.51-.34-26.52-.23-9.01-.57-17.73-1.03-26.17-.23-4.11-1.03-7.61-2.4-10.52-1.37-2.91-4.05-5.39-8.04-7.44v-2.57c9.81.91,17.16,1.37,22.07,1.37,3.76,0,9.12-.28,16.08-.85ZM713.35,78.33v18.99c1.82,0,4.33-.06,7.53-.17h4.96c11.18,0,18.9-2.42,23.18-7.27,4.28-4.85,6.42-12.92,6.42-24.21,0-4.79-1.05-9.44-3.17-13.94-2.11-4.5-4.82-7.9-8.12-10.18-2.63-1.82-5.53-2.99-8.73-3.51-3.19-.51-6.96-.77-11.29-.77-1.83,0-4.74.23-8.73.68h-.51c-.46,1.37-.68,3.76-.68,7.18,0,1.94-.06,3.42-.17,4.45-.46,6.05-.68,15.63-.68,28.74Z"/>
    <path class="st0" d="M970.46,150.52c1.71,4.45,3.79,8.04,6.24,10.78,2.45,2.74,5.5,4.91,9.15,6.5v2.74c-4.68-.8-8.75-1.37-12.23-1.71-3.48-.34-6.7-.51-9.66-.51-3.54,0-7.07.14-10.61.43-3.54.29-7.81.83-12.83,1.62v-2.4c0-.8.74-2.16,2.22-4.11,2.16-2.85,3.25-5.13,3.25-6.84,0-1.14-.14-2.37-.43-3.68-.29-1.31-.54-2.19-.77-2.65l-13.17-35.92c-7.18-.57-13.57-.85-19.16-.85-7.87,0-14.6.29-20.18.85l-15.05,39v.17c-.8,1.83-1.31,3.22-1.54,4.19-.23.97-.34,2.08-.34,3.34,0,2.62,1.03,4.91,3.08,6.84v2.05c-3.88-.57-7.13-.97-9.75-1.2-2.62-.23-5.08-.34-7.36-.34-2.62,0-5.36.11-8.21.34-2.85.23-6.56.68-11.12,1.37l2.22-2.74c4.22-1.48,7.84-3.65,10.86-6.5,3.02-2.85,5.56-6.73,7.61-11.63l40.71-98.88c.23-.45.34-1.25.34-2.4,0-3.42-1.17-6.81-3.51-10.18-2.34-3.36-5.45-6.42-9.32-9.15l-.69-2.05c8.78.8,16.76,1.2,23.95,1.2h7.36l8.21,20.36,40.72,101.96ZM927.87,105.53v-.51l-15.05-39.69-16.08,39.69v.51c6.84.23,11.97.34,15.4.34s8.67-.11,15.74-.34Z"/>
  </g>
  <g>
    <path class="st0" d="M283.17,221.99h1.39l1.21,9.34c.71-1.37,1.61-2.62,2.68-3.75,1.07-1.13,2.26-2.12,3.55-2.95,1.3-.83,2.67-1.48,4.11-1.94,1.44-.46,2.91-.69,4.4-.69,1.34,0,2.66.18,3.96.54,1.3.36,2.51.92,3.64,1.7l-2.86,7.64c-.6-.65-1.22-1.18-1.88-1.59-.66-.4-1.33-.72-2.01-.94-.69-.22-1.39-.36-2.1-.42-.71-.06-1.43-.09-2.15-.09-1.13,0-2.24.16-3.33.49-1.09.33-2.12.81-3.11,1.45-.98.64-1.89,1.46-2.73,2.46s-1.56,2.17-2.19,3.51v31.87h-9.07v-44.12l6.48-2.5Z"/>
    <path class="st0" d="M316.25,205.31c0-.71.13-1.39.4-2.01.27-.63.64-1.18,1.12-1.65s1.03-.85,1.65-1.12c.63-.27,1.3-.4,2.01-.4s1.39.13,2.01.4c.63.27,1.18.64,1.65,1.12.48.48.85,1.03,1.12,1.65.27.63.4,1.3.4,2.01s-.13,1.39-.4,2.01c-.27.63-.64,1.18-1.12,1.65-.48.48-1.03.85-1.65,1.12s-1.3.4-2.01.4-1.39-.13-2.01-.4c-.63-.27-1.18-.64-1.65-1.12-.48-.48-.85-1.03-1.12-1.65-.27-.63-.4-1.3-.4-2.01ZM316.96,224.58l6.39-2.59h2.64v46.63h-9.03v-44.03Z"/>
    <path class="st0" d="M356.52,266.42c1.22,0,2.35-.19,3.4-.56,1.04-.37,1.94-.87,2.7-1.5.76-.63,1.35-1.35,1.77-2.17.42-.82.63-1.66.63-2.53,0-1.4-.35-2.62-1.05-3.67-.7-1.04-1.62-1.97-2.77-2.79-1.15-.82-2.45-1.57-3.91-2.26-1.46-.68-2.95-1.39-4.47-2.12-1.52-.73-3.01-1.5-4.47-2.32-1.46-.82-2.76-1.78-3.91-2.88-1.15-1.1-2.07-2.38-2.77-3.82-.7-1.44-1.05-3.14-1.05-5.07,0-1.82.39-3.51,1.16-5.07s1.86-2.91,3.24-4.05c1.39-1.13,3.03-2.02,4.94-2.66,1.91-.64,3.99-.96,6.26-.96,1.52,0,2.94.11,4.25.31,1.31.21,2.6.61,3.87,1.21,1.27.6,2.53,1.45,3.78,2.57s2.58,2.57,3.98,4.36l-3.35,3c-1.73-2.83-3.66-4.94-5.79-6.33-2.13-1.39-4.4-2.08-6.82-2.08-1.31,0-2.5.16-3.58.47-1.07.31-1.99.75-2.75,1.3-.76.55-1.36,1.2-1.79,1.94-.43.75-.65,1.54-.65,2.37,0,1.37.38,2.56,1.14,3.58.76,1.01,1.77,1.93,3.02,2.75,1.25.82,2.67,1.57,4.27,2.26,1.59.69,3.22,1.39,4.87,2.1,1.65.71,3.28,1.49,4.87,2.32,1.59.83,3.02,1.8,4.27,2.88,1.25,1.09,2.26,2.35,3.02,3.78s1.14,3.1,1.14,5.01-.36,3.75-1.07,5.43c-.71,1.68-1.8,3.14-3.24,4.38-1.45,1.24-3.26,2.21-5.43,2.93-2.18.72-4.74,1.07-7.69,1.07-1.34,0-2.72-.11-4.13-.31-1.42-.21-2.84-.62-4.27-1.23-1.43-.61-2.86-1.47-4.29-2.57-1.43-1.1-2.83-2.55-4.2-4.34l3.71-3.35c1.1,1.55,2.16,2.87,3.17,3.96,1.01,1.09,2.05,1.98,3.11,2.68,1.06.7,2.15,1.21,3.26,1.52s2.33.47,3.64.47Z"/>
    <path class="st0" d="M396.44,207.28h2.59v15.56h10.19v3.89h-10.19v32.23c0,.69.13,1.33.38,1.92.25.6.6,1.12,1.03,1.56.43.45.95.8,1.54,1.05.6.25,1.25.38,1.97.38,1.01,0,1.94-.25,2.77-.76.83-.51,1.56-1.13,2.19-1.88l2.28,1.52c-1.25,2.12-2.88,3.79-4.87,5.01-2,1.22-4.47,1.83-7.42,1.83-1.52,0-2.85-.26-3.98-.78-1.13-.52-2.06-1.25-2.79-2.19-.73-.94-1.27-2.06-1.63-3.35-.36-1.3-.54-2.73-.54-4.31v-32.23h-7.96v-1.7l7.96-2.19v-13.01l6.48-2.55Z"/>
    <path class="st0" d="M444.27,269.59c-3.52,0-6.75-.61-9.7-1.83-2.95-1.22-5.5-2.88-7.64-4.98-2.15-2.1-3.82-4.56-5.03-7.38s-1.81-5.83-1.81-9.05.6-6.53,1.81-9.5c1.21-2.96,2.88-5.55,5.03-7.76,2.15-2.2,4.69-3.94,7.64-5.21,2.95-1.27,6.18-1.9,9.7-1.9s6.7.58,9.63,1.74c2.94,1.16,5.48,2.76,7.62,4.78,2.15,2.03,3.82,4.4,5.03,7.13,1.21,2.73,1.81,5.65,1.81,8.78,0,3.46-.6,6.71-1.81,9.77-1.21,3.06-2.88,5.72-5.03,8-2.15,2.28-4.69,4.08-7.62,5.41-2.94,1.33-6.15,1.99-9.63,1.99ZM446.02,266.24c1.79,0,3.43-.46,4.92-1.39s2.77-2.17,3.85-3.73c1.07-1.56,1.91-3.38,2.5-5.43.6-2.06.89-4.23.89-6.53,0-3.31-.28-6.41-.85-9.3s-1.49-5.41-2.77-7.56c-1.28-2.15-2.95-3.84-5.01-5.07-2.06-1.24-4.56-1.86-7.51-1.86-1.52,0-3,.44-4.43,1.32-1.43.88-2.69,2.08-3.78,3.6-1.09,1.52-1.96,3.3-2.61,5.34-.66,2.04-.98,4.21-.98,6.5,0,3.34.35,6.47,1.05,9.39.7,2.92,1.73,5.47,3.08,7.64,1.36,2.18,3.01,3.9,4.96,5.16,1.95,1.27,4.18,1.9,6.68,1.9Z"/>
    <path class="st0" d="M519.56,244.65v5.23h-21.77v-5.23h21.77Z"/>
    <path class="st0" d="M582.23,235.71c-.33-1.19-.78-2.4-1.34-3.62-.57-1.22-1.29-2.33-2.17-3.33-.88-1-1.92-1.81-3.11-2.44-1.19-.63-2.59-.94-4.2-.94-2.06,0-3.9.42-5.54,1.25-1.64.83-3.02,1.97-4.16,3.4-1.13,1.43-2,3.1-2.59,5.01-.6,1.91-.89,3.93-.89,6.08,0,2.92.38,5.68,1.14,8.29.76,2.61,1.83,4.89,3.22,6.86,1.39,1.97,3.05,3.52,5.01,4.67,1.95,1.15,4.13,1.72,6.55,1.72,2.12,0,3.96-.34,5.52-1.01,1.56-.67,2.92-1.57,4.07-2.7,1.15-1.13,2.14-2.45,2.97-3.96.83-1.5,1.58-3.09,2.24-4.76l2.73,1.12c-.78,2.86-1.82,5.42-3.13,7.69-1.31,2.26-2.85,4.18-4.63,5.74s-3.77,2.76-5.99,3.58c-2.22.82-4.63,1.23-7.22,1.23-3.01,0-5.83-.59-8.45-1.77-2.62-1.18-4.9-2.79-6.84-4.85-1.94-2.06-3.47-4.45-4.6-7.2s-1.7-5.68-1.7-8.81c0-2.29.28-4.51.85-6.64.57-2.13,1.36-4.12,2.39-5.97s2.26-3.53,3.71-5.05c1.44-1.52,3.05-2.82,4.81-3.91,1.76-1.09,3.64-1.93,5.65-2.53,2.01-.6,4.11-.89,6.28-.89,1.82,0,3.56.21,5.23.63s3.2,1.01,4.6,1.77,2.64,1.7,3.71,2.82c1.07,1.12,1.91,2.36,2.5,3.73l-6.62,4.78Z"/>
    <path class="st0" d="M613.65,268.61h-9.12v-66.52l6.48-2.59h2.64v69.11Z"/>
    <path class="st0" d="M638.82,222.84v32.59c0,1.13.26,2.21.78,3.22.52,1.01,1.24,1.89,2.17,2.64s1.99,1.33,3.2,1.77c1.21.43,2.51.65,3.91.65.89,0,1.86-.19,2.88-.58,1.03-.39,2.03-.92,3.02-1.59.98-.67,1.9-1.46,2.75-2.37.85-.91,1.57-1.87,2.17-2.88v-33.44h9.03v45.78h-9.03v-8.58c-.8,1.31-1.81,2.55-3.02,3.71-1.21,1.16-2.51,2.18-3.91,3.04-1.4.86-2.85,1.55-4.34,2.06-1.49.51-2.91.76-4.25.76-2,0-3.87-.37-5.63-1.12-1.76-.74-3.29-1.76-4.6-3.04-1.31-1.28-2.35-2.79-3.11-4.52-.76-1.73-1.14-3.56-1.14-5.5v-32.59h9.12Z"/>
    <path class="st0" d="M684.82,202.05l6.44-2.55h2.68v31.96c.74-1.28,1.72-2.5,2.93-3.67s2.52-2.17,3.93-3.02c1.42-.85,2.89-1.53,4.43-2.03,1.54-.51,3-.76,4.4-.76,2.65,0,5.1.54,7.33,1.61,2.23,1.07,4.16,2.53,5.77,4.38,1.61,1.85,2.87,4,3.78,6.46.91,2.46,1.36,5.09,1.36,7.89,0,3.79-.66,7.33-1.99,10.64-1.33,3.31-3.14,6.19-5.45,8.65-2.31,2.46-5.01,4.4-8.11,5.83-3.1,1.43-6.41,2.15-9.92,2.15s-6.59-.45-9.59-1.34c-2.99-.89-5.65-2.25-7.98-4.07v-62.14ZM693.94,261.15c.57.54,1.18,1.09,1.86,1.65.67.57,1.42,1.08,2.26,1.54.83.46,1.77.83,2.79,1.12,1.03.28,2.18.43,3.46.43,2.12,0,4.04-.51,5.77-1.54,1.73-1.03,3.21-2.46,4.45-4.29,1.24-1.83,2.19-4.01,2.86-6.53.67-2.52,1.01-5.27,1.01-8.25,0-2.26-.35-4.39-1.05-6.37-.7-1.98-1.65-3.71-2.86-5.19-1.21-1.48-2.62-2.64-4.25-3.49-1.62-.85-3.36-1.27-5.21-1.27-1.04,0-2.11.15-3.2.45-1.09.3-2.12.7-3.11,1.21-.98.51-1.89,1.09-2.73,1.77s-1.52,1.39-2.06,2.17v26.6Z"/>
  </g>
</svg>