<?xml version="1.0" encoding="UTF-8"?>
<svg id="Livello_1" xmlns="http://www.w3.org/2000/svg" version="1.1" viewBox="0 0 1011.52 1197.59">
  <!-- Generator: Adobe Illustrator 29.1.0, SVG Export Plug-In . SVG Version: 2.1.0 Build 142)  -->
  <defs>
    <style>
      .st0 {
        fill: #dbaa5f;
        stroke: #dbaa5f;
        stroke-width: 2;
      }
    </style>
  </defs>
  <path  class="st0" d="M764.66,894.57v178.13c0,10.96-8.91,19.87-19.9,19.87h-1.15v35.24c0,8.47-6.88,15.37-15.35,15.37h-445c-8.47,0-15.37-6.9-15.37-15.37v-35.24h-1.15c-10.96,0-19.9-8.91-19.9-19.87v-178.82c-.83-1.32-1.62-2.65-2.31-4.02v182.84c0,11.84,9.35,21.56,21.05,22.16v32.96c0,9.74,7.94,17.68,17.68,17.68h445c9.74,0,17.66-7.94,17.66-17.68v-32.96c11.72-.6,21.05-10.32,21.05-22.16v-182.03c-.72,1.32-1.48,2.61-2.31,3.9ZM818.92,128.22c-13.06-5.29-43.64-17.63-76.37-2.95-30.07,13.5-54.7,46.44-73.16,97.88h-5.12c.69-5.82,2.31-29.63-12.21-59.52-15.3-31.5-52.23-76.53-141.2-111.91l-9.76-.09-.44.09c-88.95,35.38-125.88,80.41-141.18,111.91-14.52,29.89-12.9,53.71-12.21,59.52h-5.12c-18.49-51.44-43.09-84.38-73.16-97.88-32.75-14.7-63.31-2.33-76.37,2.95-2.31.92-4.56,1.01-5.26,1.98-.34.47.08,1.94.58,2.24,1.96,1.2,5.89,3.09,10.5,23.24.21.83.35,1.5.44,1.89,13.22,50.96,19.57,104.78,25.71,156.83,1.06,8.86,2.1,17.73,3.18,26.54.6,4.87,1.18,9.69,1.78,14.52.09.83.18,1.68.3,2.52.72-.46,1.43-.9,2.15-1.34-.09-.83-.21-1.64-.3-2.47-.53-4.48-1.08-8.98-1.64-13.5-1.08-8.82-2.12-17.68-3.16-26.54-6.16-52.11-12.53-106.01-25.78-157.13-.09-.39-.23-1.02-.41-1.82-2.22-9.72-5.22-20.43-9.46-23.93.69-.25,1.43-.55,2.24-.88,12.79-5.17,42.72-17.29,74.57-3,29.61,13.32,53.92,46.04,72.22,97.33l.28.76h9.44l-.25-1.36c-.05-.25-4.48-25.96,11.91-59.62,27.42-56.27,91.05-91.17,139.68-110.55h8.91c88.03,35.08,124.56,79.46,139.7,110.55,16.39,33.65,11.93,59.36,11.89,59.62l-.23,1.36h9.44l.28-.76c18.3-51.28,42.58-84.01,72.22-97.33,31.83-14.29,61.78-2.17,74.57,3,.78.32,1.55.62,2.22.88-4.22,3.51-7.22,14.22-9.44,23.91-.18.83-.32,1.45-.44,1.85-13.22,51.12-19.59,105.04-25.76,157.15-1.04,8.86-2.1,17.73-3.16,26.52-.55,4.45-1.09,8.86-1.61,13.27-.09.83-.21,1.66-.3,2.49.74.42,1.45.85,2.17,1.32.09-.83.21-1.68.3-2.52.58-4.73,1.15-9.51,1.73-14.29,1.09-8.82,2.12-17.66,3.16-26.52,6.16-52.05,12.51-105.87,25.71-156.85.12-.42.25-1.06.46-1.89,4.62-20.15,8.52-22.03,10.5-23.24.49-.3.92-1.77.58-2.24-.7-.97-2.98-1.06-5.26-1.98ZM767.4,518.02c.02-.83.05-1.68.12-2.52-.79.32-1.57.62-2.35.92-.05.83-.09,1.66-.12,2.49-.78,19.76-1.06,39.58-.72,59.59.95,54.91,1.04,110.53.85,165.32,0,2.38,0,4.78-.02,7.15.81,2.47,1.57,5.01,2.28,7.55,0-2.63.02-5.29.02-7.92.21-56.98.16-114.94-.83-172.13-.35-20.31-.07-40.39.76-60.47ZM246.44,518.78c-.02-.83-.05-1.66-.12-2.52-.76-.3-1.55-.6-2.33-.92.05.85.09,1.68.11,2.54.81,20.13,1.11,40.25.76,60.61-1.02,57.63-1.04,116.02-.85,173.44.02,2.7.02,5.38.02,8.08.72-2.61,1.48-5.19,2.28-7.73,0-2.45,0-4.89-.02-7.34-.16-55.16-.09-111.15.88-166.43.35-20.06.07-39.91-.74-59.73Z"/>
  <path  class="st0" d="M756.65,723.13c-21.69-45.01-107.09-23.03-142.82-11.49.09-2.91-1.04-8.01-3.39-15.26-4.66-11.24-11.96-18.93-21.67-22.83-16.41-6.58-34.48-.51-39.4,1.41-13.02-53.04,8.15-171.25,11.52-189.25.74.83,1.5,1.66,2.29,2.47l.72.74c48.01,49.62,133.38,51.58,196.69,31.53,1.41-.46,2.91-.95,4.48-1.52.02-.83.07-1.66.12-2.49-1.85.67-3.62,1.27-5.29,1.8-62.64,19.87-147.02,18-194.33-30.93l-.72-.72c-1.29-1.36-2.54-2.75-3.79-4.18l-1.55-1.8-.44,2.33c-.07.35-6.72,34.5-11.45,75.26-4.36,37.64-7.94,88.81-.16,118.61l.35,1.32,1.25-.53c.21-.09,21-9.07,38.87-1.89,9.12,3.65,15.99,10.92,20.36,21.46,2.08,6.39,3.85,14.08,3.37,15.16l-.92.53.18.42.23.53c.32.74.62.85,1.8.53h.02c.42-.12.92-.3,1.57-.51,24.6-7.94,47.29-12.9,67.44-14.75,38.48-3.51,62.92,4.94,72.61,25.06,4.06,8.42,7.59,17.43,10.59,26.84.02-2.38.02-4.78.02-7.15-2.52-7.2-5.38-14.12-8.54-20.7ZM756.65,723.13c-21.69-45.01-107.09-23.03-142.82-11.49.09-2.91-1.04-8.01-3.39-15.26-4.66-11.24-11.96-18.93-21.67-22.83-16.41-6.58-34.48-.51-39.4,1.41-13.02-53.04,8.15-171.25,11.52-189.25.74.83,1.5,1.66,2.29,2.47l.72.74c48.01,49.62,133.38,51.58,196.69,31.53,1.41-.46,2.91-.95,4.48-1.52.02-.83.07-1.66.12-2.49-1.85.67-3.62,1.27-5.29,1.8-62.64,19.87-147.02,18-194.33-30.93l-.72-.72c-1.29-1.36-2.54-2.75-3.79-4.18l-1.55-1.8-.44,2.33c-.07.35-6.72,34.5-11.45,75.26-4.36,37.64-7.94,88.81-.16,118.61l.35,1.32,1.25-.53c.21-.09,21-9.07,38.87-1.89,9.12,3.65,15.99,10.92,20.36,21.46,2.08,6.39,3.85,14.08,3.37,15.16l-.92.53.18.42.23.53c.32.74.62.85,1.8.53h.02c.42-.12.92-.3,1.57-.51,24.6-7.94,47.29-12.9,67.44-14.75,38.48-3.51,62.92,4.94,72.61,25.06,4.06,8.42,7.59,17.43,10.59,26.84.02-2.38.02-4.78.02-7.15-2.52-7.2-5.38-14.12-8.54-20.7ZM815.15,385.22c-8.98-12.37-20.4-22.25-33.12-29.98-.71-.46-1.43-.88-2.17-1.29-31.3-18.3-69.96-24.14-99.75-22.69-28.32,1.36-57.93,7.69-87.43,18.44-29.52,10.78-58.88,25.96-86.73,45.08-55.67-38.22-117.5-60.79-174.14-63.52-29.93-1.45-68.78,4.43-100.14,22.92-.71.39-1.43.83-2.15,1.29-12.58,7.71-23.86,17.49-32.75,29.75-5.15,7.06-6.81,14.1-4.99,20.86,3.67,13.57,20.7,22.85,30.53,27.17.09.02.16.12.11.23-2.01,5.17-6.74,26.29-7.02,28.5-2.08,16.76-.21,29.47,5.75,38.91,5.4,8.56,14.61,13.69,22.94,16.99.79.32,1.57.62,2.33.9,1.71.62,3.35,1.18,4.89,1.66,63.33,20.06,148.7,18.09,196.71-31.55l.72-.72c.76-.81,1.52-1.64,2.29-2.47,3.35,18,24.51,136.22,11.49,189.25-4.89-1.92-22.99-7.99-39.37-1.41-9.74,3.9-17.03,11.56-21.72,22.9-2.33,7.2-3.46,12.28-3.35,15.19-35.75-11.54-121.15-33.51-142.84,11.49-3.32,6.9-6.3,14.22-8.95,21.81-.79,2.31-1.55,4.64-2.29,6.99-11.45,36.84-14.86,79.63-8.77,117.8,1.36,8.63,4.45,16.92,9.28,24.81.72,1.2,1.48,2.4,2.31,3.58,7.8,11.42,19.27,21.97,34.34,31.6,20.1,12.83,46.64,23.54,72.82,29.4,31.78,7.13,66.15,7.41,99.38,7.66,12.19.09,24.79.18,36.93.65h31.37c12.07-.46,24.69-.55,36.88-.65,33.23-.25,67.58-.53,99.36-7.66,26.17-5.86,52.74-16.57,72.84-29.4,14.77-9.44,26.1-19.8,33.9-31,.83-1.15,1.59-2.33,2.31-3.51,5.05-8.08,8.29-16.59,9.72-25.48,6.16-38.64,2.61-82-9.21-119.12-.72-2.28-1.48-4.55-2.29-6.79-2.52-7.2-5.38-14.12-8.54-20.7-21.69-45.01-107.09-23.03-142.82-11.49.09-2.91-1.04-8.01-3.39-15.26-4.66-11.24-11.96-18.93-21.67-22.83-16.41-6.58-34.48-.51-39.4,1.41-13.02-53.04,8.15-171.25,11.52-189.25.74.83,1.5,1.66,2.29,2.47l.72.74c48.01,49.62,133.38,51.58,196.69,31.53,1.41-.46,2.91-.95,4.48-1.52.76-.28,1.55-.58,2.35-.9,8.45-3.28,17.89-8.42,23.36-17.13,5.93-9.44,7.82-22.16,5.75-38.91-.28-2.22-5.03-23.31-7.04-28.5-.05-.12.05-.21.14-.23,9.81-4.32,26.84-13.59,30.51-27.17,1.85-6.76.16-13.8-4.96-20.86ZM817.9,405.48c-3.41,12.65-19.78,21.49-29.24,25.64-1.22.55-1.82,1.94-1.34,3.19,1.96,5.05,6.67,26.1,6.9,27.95,2.01,16.2.23,28.43-5.42,37.39-4.94,7.85-13.43,12.69-21.28,15.86-.79.32-1.57.62-2.35.92-1.85.67-3.62,1.27-5.29,1.8-62.64,19.87-147.02,18-194.33-30.93l-.72-.72c-1.29-1.36-2.54-2.75-3.79-4.18l-1.55-1.8-.44,2.33c-.07.35-6.72,34.5-11.45,75.26-4.36,37.64-7.94,88.81-.16,118.61l.35,1.32,1.25-.53c.21-.09,21-9.07,38.87-1.89,9.12,3.65,15.99,10.92,20.36,21.46,2.08,6.39,3.85,14.08,3.37,15.16l-.92.53.18.42.23.53c.32.74.62.85,1.8.53h.02c.42-.12.92-.3,1.57-.51,24.6-7.94,47.29-12.9,67.44-14.75,38.48-3.51,62.92,4.94,72.61,25.06,4.06,8.42,7.59,17.43,10.59,26.84.81,2.47,1.57,5.01,2.28,7.55,9.95,35.1,12.67,75.01,6.95,110.85-1.18,7.36-3.65,14.47-7.43,21.28-.72,1.32-1.48,2.61-2.31,3.9-7.62,12.02-19.36,23.13-35.15,33.19-19.9,12.69-46.16,23.31-72.1,29.13-31.53,7.06-65.75,7.34-98.87,7.59-12.21.09-24.83.18-36.9.65h-31.3c-12.09-.46-24.72-.55-36.95-.65-33.1-.25-67.35-.53-98.87-7.59-25.92-5.82-52.21-16.43-72.08-29.13-16.09-10.25-28-21.6-35.59-33.88-.83-1.32-1.62-2.65-2.31-4.02-3.53-6.55-5.86-13.41-6.99-20.47-5.65-35.34-3.09-74.64,6.51-109.38.72-2.61,1.48-5.19,2.28-7.73,3.09-9.88,6.76-19.34,11.01-28.13,8.29-17.17,27.28-25.83,56.57-25.83,5.05,0,10.41.25,16.06.76,20.15,1.85,42.84,6.81,67.44,14.75.62.21,1.13.37,1.52.48,1.22.35,1.52.23,1.85-.51l.28-.39.3-.42-.92-.53c-.65-1.22,1.13-8.91,3.18-15.21,4.41-10.64,11.26-17.91,20.38-21.56,17.86-7.18,38.68,1.8,38.89,1.89l1.22.53.35-1.32c7.78-29.8,4.22-80.96-.16-118.61-4.71-40.76-11.36-74.92-11.42-75.26l-.46-2.33-1.55,1.8c-1.22,1.43-2.49,2.82-3.79,4.18l-.69.72c-47.31,48.93-131.69,50.8-194.36,30.93-1.78-.55-3.72-1.2-5.7-1.96-.76-.3-1.55-.6-2.33-.92-7.71-3.16-16.02-7.96-20.89-15.69-5.65-8.95-7.41-21.19-5.4-37.39.23-1.87,4.94-22.92,6.88-27.95.48-1.25-.09-2.63-1.34-3.19-9.44-4.15-25.8-12.99-29.22-25.64-1.66-6.07-.09-12.44,4.62-18.9,8.49-11.7,19.23-21.12,31.18-28.6.72-.46,1.43-.9,2.15-1.34,31.07-18.63,69.89-24.53,99.73-23.1,56.31,2.75,117.85,25.23,173.24,63.33l.3.21h1.43l.3-.21c55.41-38.1,116.95-60.58,173.24-63.33,29.73-1.43,68.36,4.43,99.36,22.9.74.42,1.45.85,2.17,1.32,12.12,7.52,22.96,17.01,31.55,28.83,4.71,6.46,6.25,12.83,4.62,18.9ZM756.65,723.13c-21.69-45.01-107.09-23.03-142.82-11.49.09-2.91-1.04-8.01-3.39-15.26-4.66-11.24-11.96-18.93-21.67-22.83-16.41-6.58-34.48-.51-39.4,1.41-13.02-53.04,8.15-171.25,11.52-189.25.74.83,1.5,1.66,2.29,2.47l.72.74c48.01,49.62,133.38,51.58,196.69,31.53,1.41-.46,2.91-.95,4.48-1.52.02-.83.07-1.66.12-2.49-1.85.67-3.62,1.27-5.29,1.8-62.64,19.87-147.02,18-194.33-30.93l-.72-.72c-1.29-1.36-2.54-2.75-3.79-4.18l-1.55-1.8-.44,2.33c-.07.35-6.72,34.5-11.45,75.26-4.36,37.64-7.94,88.81-.16,118.61l.35,1.32,1.25-.53c.21-.09,21-9.07,38.87-1.89,9.12,3.65,15.99,10.92,20.36,21.46,2.08,6.39,3.85,14.08,3.37,15.16l-.92.53.18.42.23.53c.32.74.62.85,1.8.53h.02c.42-.12.92-.3,1.57-.51,24.6-7.94,47.29-12.9,67.44-14.75,38.48-3.51,62.92,4.94,72.61,25.06,4.06,8.42,7.59,17.43,10.59,26.84.02-2.38.02-4.78.02-7.15-2.52-7.2-5.38-14.12-8.54-20.7Z"/>
  <path  class="st0" d="M613.21,713.92c-.09.14-.18.28-.25.42h-.02c-16.25,26.01-37.41,31.02-52.32,30.65-3.88-.09-7.5-.55-10.8-1.2h-.02c-.71-.12-1.38-.28-2.08-.44-7.43-1.64-12.88-4.11-15-5.15-6.14,9.55-13.52,14.75-21.93,15.39-.62.05-1.25.07-1.85.07-14.17,0-26.45-12.39-29.31-15.53-5.38,2.75-10.5,4.66-15.35,5.93-.85.23-1.71.44-2.56.6-38.8,8.42-60.24-25.99-62.78-30.35-.16-.25-.23-.42-.25-.44l2.03-1.11c.05.09.18.32.35.65,3.46,5.98,29.61,47.66,78.31,22.27l.81-.44.6.72c.14.16,14.4,16.5,29.82,15.33,7.89-.62,14.86-5.72,20.7-15.19l.58-.95.97.53c.48.28,47.98,25.46,78.06-22.41.12-.18.23-.37.35-.55l1.96,1.2Z"/>
  <path  class="st0" d="M320.18,492.21c-40.42,0-58.52-15.72-66.6-29.16-4.12-6.85-6.9-14.76-8.25-23.5-2.36-15.23-.35-30.89,5.64-44.1,6.5-14.32,17.23-25.07,31.03-31.08,23.3-10.14,49.36-2.25,72.34,4.73,1.54.47,3.07.93,4.58,1.39,22.93,6.88,43.07,17.99,58.23,32.12,17.75,16.54,27.72,36.15,29.63,58.28.63,7.23-8.06,9.45-13.81,10.92-.7.18-1.36.35-1.94.51-4.08,1.14-8.2,2.35-12.19,3.53-7.49,2.21-15.23,4.49-22.98,6.34-25.68,6.14-49.09,9.41-71.57,9.98-1.39.04-2.76.05-4.1.05ZM306.7,360.59c-8.28,0-16.45,1.33-24.29,4.74-22.15,9.65-41.89,36.29-36.05,74.05h0c1.33,8.61,4.06,16.39,8.11,23.12,7.94,13.2,25.78,28.65,65.7,28.65,1.33,0,2.69-.02,4.07-.05,22.4-.57,45.74-3.82,71.35-9.95,7.73-1.85,15.46-4.13,22.93-6.33,3.99-1.18,8.12-2.39,12.21-3.53.6-.17,1.26-.34,1.97-.52,5.4-1.38,13.57-3.47,13.02-9.81-1.89-21.86-11.75-41.24-29.3-57.6-15.04-14.02-35.03-25.05-57.81-31.88-1.51-.45-3.04-.92-4.58-1.39-15.02-4.56-31.37-9.51-47.33-9.51Z"/>
  <path  class="st0" d="M691.74,496.83c-1.34,0-2.71-.02-4.1-.05-22.48-.57-45.89-3.83-71.57-9.98-7.75-1.85-15.49-4.13-22.96-6.34-3.99-1.18-8.12-2.39-12.21-3.53-.59-.16-1.25-.33-1.94-.51-5.75-1.47-14.44-3.69-13.81-10.92,2.37-27.47,12.07-48.05,29.65-62.91,16.14-13.65,37.51-21.28,58.21-27.48,1.51-.45,3.04-.92,4.58-1.38,22.99-6.97,49.04-14.88,72.35-4.73,13.8,6.01,24.53,16.76,31.03,31.08,5.99,13.21,7.99,28.87,5.64,44.1l-.52-.08.52.08c-1.35,8.75-4.13,16.66-8.25,23.5-8.08,13.44-26.19,29.16-66.6,29.16ZM705.22,365.21c-15.96,0-32.31,4.96-47.34,9.52-1.54.47-3.06.93-4.58,1.38-42.94,12.88-81.92,29.42-87.11,89.48-.55,6.34,7.62,8.43,13.02,9.81.71.18,1.37.35,1.97.52,4.09,1.14,8.22,2.36,12.22,3.54,7.47,2.2,15.19,4.48,22.92,6.33,25.6,6.13,48.94,9.38,71.35,9.95,42.79,1.07,61.57-14.95,69.78-28.59,4.05-6.73,6.78-14.51,8.11-23.12,5.84-37.77-13.89-64.41-36.05-74.05-7.83-3.41-16.01-4.74-24.29-4.74Z"/>
  <path  class="st0" d="M462.56,914.75c-44.79-2.44-89.11-9.43-131.75-20.8-.65-.17-1.31-.34-1.96-.51-13.92-3.56-23.82-8.51-30.19-22.19-5.31-11.41-7.14-24.09-8.13-33.87-1.6-15.69-1.6-31.27,0-46.31.97-12.97,3.22-27.48,12.51-36.72,10.29-10.23,24.69-8.84,38.72-5.83l.37.08c4.55.98,9.11,1.96,13.65,2.97,19.25,4.29,37.42,9.63,55.53,16.34,15.02,5.56,26.58,6.66,35.32,3.35,4.91-1.86,8.99-5.76,11.18-10.7,1.35-3.04,1.94-6.47,2.51-9.78.45-2.6.91-5.29,1.74-7.82l1,.33c-.8,2.46-1.26,5.11-1.7,7.67-.59,3.38-1.19,6.88-2.59,10.03-2.31,5.2-6.6,9.3-11.77,11.25-9,3.4-20.8,2.3-36.06-3.35-18.07-6.69-36.19-12.02-55.4-16.3-4.54-1.01-9.09-1.99-13.64-2.97l-.37-.08c-13.74-2.96-27.82-4.32-37.76,5.55-9.05,8.99-11.25,23.28-12.21,36.07-1.59,14.98-1.59,30.48,0,46.1.99,9.69,2.79,22.26,8.04,33.53,6.19,13.3,15.88,18.13,29.5,21.61.66.17,1.31.34,1.97.51,42.57,11.35,86.82,18.33,131.51,20.76h85.03c44.66-2.43,88.9-9.42,131.48-20.76.66-.17,1.31-.34,1.97-.51,13.62-3.48,23.3-8.31,29.5-21.61,5.24-11.27,7.05-23.84,8.04-33.53,1.59-15.62,1.59-31.13,0-46.09-.96-12.8-3.16-27.09-12.21-36.08-9.93-9.87-24.01-8.5-37.75-5.55l-.22.05c-4.6.99-9.2,1.98-13.79,3-19.21,4.28-37.33,9.61-55.4,16.3-15.27,5.66-27.06,6.75-36.06,3.35-5.16-1.95-9.25-6.02-11.53-11.46-.98-2.35-1.7-4.97-2.19-8.02-.5-3.12-1.22-6.05-2.34-9.48l1-.33c1.14,3.49,1.88,6.46,2.39,9.64.47,2.96,1.16,5.51,2.12,7.78,2.17,5.17,6.05,9.03,10.94,10.88,8.75,3.31,20.3,2.21,35.32-3.35,18.11-6.71,36.28-12.05,55.53-16.34,4.6-1.02,9.2-2.01,13.8-3l.22-.05c14.03-3.02,28.43-4.4,38.72,5.83,9.29,9.24,11.54,23.75,12.51,36.74,1.59,15.01,1.59,30.59,0,46.29-1,9.77-2.82,22.46-8.13,33.87-6.37,13.68-16.27,18.63-30.19,22.19-.66.17-1.31.33-1.96.51-42.64,11.37-86.96,18.36-131.72,20.8h-85.08Z"/>
  <path  class="st0" d="M385.39,878.47c-16.33,0-34.53-7.84-54.31-23.41-.94-.54-24.27-15.2-17.77-106.67l1.05.07c-6.44,90.6,17.07,105.59,17.31,105.73,24.93,19.63,47.22,26.85,66.32,21.53,25.87-7.22,36.73-35.41,36.83-35.69h0s.99.37.99.37c0,0,0,0,0,0h0c-.42,1.12.63,4.01,1.2,5.57.15.4.27.75.36,1.02,1.73,5.33,4.55,10.25,8.16,14.22,5.06,5.56,12.02,9.58,20.13,11.63,7.2,1.82,14.18,1.31,21.57.77,3.21-.23,6.52-.48,9.83-.5,4.27-.04,8.73.25,13.05.53,9.63.62,19.58,1.26,28.61-1.47,7.66-2.32,14.3-6.47,19.2-12.03,5.1-5.78,8.59-13.07,9.56-19.99l.29-2.04.73,1.93c.11.28,11.02,28.51,36.86,35.7,19.08,5.31,41.37-1.92,66.24-21.49.27-.18,23.69-16.91,17.25-107.55l1.05-.07c6.5,91.44-16.69,107.82-17.68,108.48-25.11,19.77-47.71,27.07-67.14,21.65-22.65-6.31-34.02-28.39-36.85-34.67-1.31,6.57-4.71,13.31-9.51,18.75-5.03,5.7-11.84,9.96-19.69,12.34-9.21,2.79-19.27,2.14-28.98,1.52-4.3-.28-8.73-.56-12.97-.53-3.27.03-6.57.27-9.76.5-7.14.52-14.53,1.06-21.9-.8-8.31-2.09-15.46-6.22-20.65-11.94-3.71-4.08-6.61-9.13-8.39-14.6-.08-.26-.21-.6-.35-.98-.39-1.07-.89-2.43-1.16-3.69-3.14,6.91-14.27,27.78-36.41,34.05-4.21,1.19-8.57,1.79-13.07,1.79Z"/>
  <path  class="st0" d="M519.61,1113.75c-39.35,0-74.9-1.5-104.74-3.48-87.86-5.85-146.49-17.06-147.08-17.18l.2-1.04c.58.11,59.17,11.32,146.96,17.16,81.02,5.39,204.2,7.19,330.87-14.88l.18,1.04c-80.12,13.95-158.85,18.37-226.4,18.37Z"/>
  <path  class="st0" d="M690.28,1145.97c-46.13-22.1-95.15-35.97-145.68-41.24-40.44-4.21-81.93-2.95-123.33,3.74-70.51,11.4-116.9,34.94-117.36,35.18l-.48-.94c.46-.24,46.97-23.85,117.64-35.28,41.5-6.71,83.09-7.98,123.62-3.76,50.67,5.27,99.81,19.18,146.06,41.34l-.46.95Z"/>
</svg>